<svg xmlns="http://www.w3.org/2000/svg" width="732" height="539.035" viewBox="0 0 732 539.035"><g transform="translate(-40.535 -30.216)"><path d="M192.97,217.889c-1.19-10.373-11.667-19.846-22.773-18.406,6.463-15.57-3.453-35.438-20.067-40.321-9.73-2.858-22.493.585-25.387,9.99a22.367,22.367,0,0,0-24.736-6.723,21.1,21.1,0,0,0-14.277,20.606c-10.313-5.963-24.547-1.013-31.826,8.19-5.507,6.975-10.57,18.36-7.933,26.663Z" transform="translate(6.289 159.97)" fill="#fff"/><path d="M193.576,219.5h-147a1.045,1.045,0,0,1-1.027-.742c-2.707-8.505,2.333-20.251,8.1-27.586,6.883-8.685,20.6-14.378,31.616-9.293a22.208,22.208,0,0,1,14.956-19.788,23.528,23.528,0,0,1,24.711,5.635,15.816,15.816,0,0,1,7.35-7.358,26.118,26.118,0,0,1,18.667-1.62c17.056,5.753,26.472,23.36,21.443,40.1a20.747,20.747,0,0,1,13.253,4.5,22.678,22.678,0,0,1,9.007,15.053.969.969,0,0,1-.28.788,1.094,1.094,0,0,1-.793.315Zm-146.183-2.07H192.269a20.923,20.923,0,0,0-8-12.488,18.283,18.283,0,0,0-13.323-3.848,1.115,1.115,0,0,1-.98-.4,1.027,1.027,0,0,1-.163-1.015c5.754-15.916-2.912-33.324-19.39-38.948a23.949,23.949,0,0,0-17.08,1.462,13.473,13.473,0,0,0-7,7.83,1.061,1.061,0,0,1-.828.712,1.1,1.1,0,0,1-1.039-.374,21.268,21.268,0,0,0-23.527-6.4,20.061,20.061,0,0,0-13.573,19.6,1.072,1.072,0,0,1-.537.945,1.18,1.18,0,0,1-1.1,0c-10.243-5.918-23.753-.5-30.333,7.92-5.343,6.705-9.987,17.235-8,25Z" transform="translate(5.683 159.396)" fill="#d1d3d4"/><path d="M469.939,186.33H247.714a1.055,1.055,0,0,1-1.073-1.035.993.993,0,0,1,.307-.739,1.071,1.071,0,0,1,.766-.3H469.939a1.071,1.071,0,0,1,.766.3.994.994,0,0,1,.307.739A1.055,1.055,0,0,1,469.939,186.33Z" transform="translate(274.803 192.564)" fill="#d1d3d4"/><path d="M561.282,363.252a.888.888,0,0,1-.467-.112L198.754,190.628a1.025,1.025,0,0,1-.49-1.4,1.1,1.1,0,0,1,1.447-.472L561.8,361.295a1.023,1.023,0,0,1,.557,1.165,1.067,1.067,0,0,1-1.047.792Z" transform="translate(210.153 198.054)" fill="#d1d3d4"/><path d="M90.373,66.59H460.951L475.6,140.684H75.72Z" transform="translate(46.912 45.469)" fill="#fff"/><path d="M476.214,142.314H76.329a1.089,1.089,0,0,1-.817-.382,1.03,1.03,0,0,1-.233-.855L89.933,67.005a1.063,1.063,0,0,1,1.05-.855H461.561a1.063,1.063,0,0,1,1.05.855l14.653,74.072a.965.965,0,0,1-.233.855,1.017,1.017,0,0,1-.817.382ZM77.636,140.2H474.907l-14.233-72H91.869Z" transform="translate(46.303 44.919)" fill="#d1d3d4"/><rect width="382.174" height="194.045" transform="translate(131.499 186.154)" fill="#fff"/><path d="M462.285,295.175H80.133a1.055,1.055,0,0,1-1.073-1.035V100.1a.994.994,0,0,1,.307-.739,1.071,1.071,0,0,1,.766-.3H462.285a1.071,1.071,0,0,1,.766.3.994.994,0,0,1,.307.739V294.14A1.055,1.055,0,0,1,462.285,295.175Zm-381.031-2.07H461.211V101.175H81.253Z" transform="translate(51.365 86.059)" fill="#d1d3d4"/><path d="M237.323,46.2,106.96,166.173h254.1Z" transform="translate(88.565 19.981)" fill="#fff"/><path d="M361.625,167.8H107.62a1.1,1.1,0,0,1-1-.653,1.009,1.009,0,0,1,.257-1.148L237.235,46.053a1.126,1.126,0,0,1,1.517,0L362.418,166a1.008,1.008,0,0,1,.233,1.125A1.073,1.073,0,0,1,361.625,167.8Zm-251.415-2.07H359.058L237.865,48.213Z" transform="translate(87.999 19.43)" fill="#d1d3d4"/><path d="M227.936,52.22,113.44,158.648H337.3Z" transform="translate(97.205 27.506)" fill="#fff"/><path d="M337.914,160.283H114.055a1.1,1.1,0,0,1-1-.653,1.052,1.052,0,0,1,.257-1.147L227.8,52.078a1.1,1.1,0,0,1,1.517,0L338.684,158.506a1.009,1.009,0,0,1,.243,1.142A1.075,1.075,0,0,1,337.914,160.283Zm-221.2-2.07H335.347l-106.819-104Z" transform="translate(96.59 26.95)" fill="#d1d3d4"/><ellipse cx="24.57" cy="23.693" rx="24.57" ry="23.693" transform="translate(298.005 121.082)" fill="#fff"/><path d="M176.077,119.621c-14.175,0-25.667-11.081-25.667-24.751S161.9,70.12,176.077,70.12,201.743,81.2,201.743,94.871s-11.491,24.751-25.667,24.751Zm0-47.386c-12.977,0-23.5,10.144-23.5,22.658s10.52,22.658,23.5,22.658,23.5-10.144,23.5-22.658-10.525-22.646-23.5-22.658Z" transform="translate(146.498 49.882)" fill="#d1d3d4"/><rect width="158.806" height="9.765" transform="translate(243.172 370.411)" fill="#fff"/><path d="M286.8,192.808H127.993a1.055,1.055,0,0,1-1.073-1.035v-9.788a1.055,1.055,0,0,1,1.073-1.035H286.8a1.055,1.055,0,0,1,1.073,1.035v9.788A1.055,1.055,0,0,1,286.8,192.808Zm-157.732-2.07H285.772V183.02H129.067Z" transform="translate(115.178 188.426)" fill="#d1d3d4"/><rect width="147.559" height="9.765" transform="translate(248.795 360.646)" fill="#fff"/><path d="M277.893,188.445H130.4a1.055,1.055,0,0,1-1.073-1.035v-9.765a1.055,1.055,0,0,1,1.073-1.035H277.893a1.055,1.055,0,0,1,1.073,1.035v9.765A1.055,1.055,0,0,1,277.893,188.445Zm-146.416-1.958H276.889v-7.7H131.477Z" transform="translate(118.392 183.001)" fill="#d1d3d4"/><rect width="117.996" height="9.765" transform="translate(263.588 350.858)" fill="#fff"/><path d="M254.716,184.118H136.743a1.055,1.055,0,0,1-1.073-1.035V173.3a1.055,1.055,0,0,1,1.073-1.035H254.716a1.079,1.079,0,0,1,1.1,1.035v9.788a1.079,1.079,0,0,1-1.1,1.035Zm-116.9-2.07H253.643V174.33H137.817Z" transform="translate(126.845 177.563)" fill="#d1d3d4"/><rect width="117.996" height="20.026" transform="translate(263.588 269.046)" fill="#fff"/><path d="M254.716,158H136.743a1.055,1.055,0,0,1-1.073-1.035V136.935a1.055,1.055,0,0,1,1.073-1.035H254.716a1.079,1.079,0,0,1,1.1,1.035v20.025a1.079,1.079,0,0,1-1.1,1.035Zm-116.9-2.07H253.643v-18H137.817Z" transform="translate(126.845 132.111)" fill="#d1d3d4"/><rect width="61.787" height="14.117" transform="translate(287.855 289.072) rotate(90)" fill="#fff"/><path d="M155.21,208.657H141.093a1.055,1.055,0,0,1-1.073-1.035V145.835a1.078,1.078,0,0,1,1.073-1.035H155.21a1.078,1.078,0,0,1,1.073,1.035v61.787a1.055,1.055,0,0,1-1.073,1.035Zm-13.043-2.07h11.97V146.87h-11.97Z" transform="translate(132.645 143.236)" fill="#d1d3d4"/><rect width="61.787" height="14.117" transform="translate(371.411 289.072) rotate(90)" fill="#fff"/><path d="M191.02,208.657H176.9a1.055,1.055,0,0,1-1.073-1.035V145.835A1.078,1.078,0,0,1,176.9,144.8H191.02a1.078,1.078,0,0,1,1.073,1.035v61.787a1.055,1.055,0,0,1-1.073,1.035Zm-13.043-2.07h11.97V146.87h-11.97Z" transform="translate(180.391 143.236)" fill="#d1d3d4"/><rect width="59.08" height="61.787" transform="translate(293.035 289.072)" fill="#fff"/><path d="M208.443,208.657h-59.08a1.055,1.055,0,0,1-1.073-1.035V145.835a1.078,1.078,0,0,1,1.073-1.035h59.08a1.078,1.078,0,0,1,1.073,1.035v61.787a1.055,1.055,0,0,1-1.073,1.035Zm-58.006-2.07H207.37V146.87H150.437Z" transform="translate(143.671 143.236)" fill="#d1d3d4"/><path d="M162.023,208.657a1.055,1.055,0,0,1-1.073-1.035V145.835a1.074,1.074,0,0,1,2.147,0v61.787a1.055,1.055,0,0,1-1.073,1.035Z" transform="translate(160.551 143.236)" fill="#d1d3d4"/><rect width="20.09" height="29.993" transform="translate(298.448 297.847)" fill="#fff"/><path d="M171.773,180.876h-20.09a1.055,1.055,0,0,1-1.073-1.035V149.735a1.078,1.078,0,0,1,1.073-1.035h20.09a1.078,1.078,0,0,1,1.073,1.035v29.993a1.011,1.011,0,0,1-.27.806,1.092,1.092,0,0,1-.8.342Zm-19.017-2.07H170.7V150.77H152.757Z" transform="translate(146.765 148.112)" fill="#d1d3d4"/><rect width="20.09" height="29.993" transform="translate(326.611 297.847)" fill="#fff"/><path d="M183.843,180.876h-20.09a1.055,1.055,0,0,1-1.073-1.035V149.735a1.078,1.078,0,0,1,1.073-1.035h20.09a1.078,1.078,0,0,1,1.073,1.035v29.993a1.011,1.011,0,0,1-.27.806,1.092,1.092,0,0,1-.8.342Zm-19.017-2.25H182.77V150.77H164.827Z" transform="translate(162.858 148.112)" fill="#d1d3d4"/><rect width="30.053" height="39.759" transform="translate(169.205 213.222)" fill="#fff"/><path d="M126.36,152.941H96.283a1.077,1.077,0,0,1-1.073-1.058V112.125a1.078,1.078,0,0,1,1.073-1.035H126.36a1.078,1.078,0,0,1,1.073,1.035v39.759a1.077,1.077,0,0,1-1.074,1.058Zm-28.98-2.093h28V113.138h-28Z" transform="translate(72.899 101.097)" fill="#d1d3d4"/><path d="M102.733,152.941a1.093,1.093,0,0,1-.767-.311,1.015,1.015,0,0,1-.306-.746V112.125a1.055,1.055,0,0,1,1.073-1.035,1.078,1.078,0,0,1,1.073,1.035v39.759a1.077,1.077,0,0,1-1.074,1.058Z" transform="translate(81.498 101.097)" fill="#d1d3d4"/><path d="M126.282,118.693H96.205a1.053,1.053,0,0,1,0-2.093h30.076a1.053,1.053,0,0,1,0,2.093Z" transform="translate(72.977 107.985)" fill="#d1d3d4"/><path d="M126.36,125.32H96.283a1.036,1.036,0,1,1,0-2.07H126.36a1.036,1.036,0,1,1,0,2.07Z" transform="translate(72.899 116.298)" fill="#d1d3d4"/><rect width="30.053" height="39.759" transform="translate(224.528 213.222)" fill="#fff"/><path d="M150.08,152.941H120a1.077,1.077,0,0,1-1.073-1.058V112.125A1.078,1.078,0,0,1,120,111.09H150.08a1.078,1.078,0,0,1,1.073,1.035v39.759a1.077,1.077,0,0,1-1.074,1.058Zm-29-2.093h28V113.138h-28Z" transform="translate(104.525 101.097)" fill="#d1d3d4"/><path d="M126.443,152.941a1.077,1.077,0,0,1-1.073-1.058V112.125a1.078,1.078,0,0,1,1.073-1.035,1.055,1.055,0,0,1,1.073,1.035v39.759a1.015,1.015,0,0,1-.306.746A1.093,1.093,0,0,1,126.443,152.941Z" transform="translate(113.112 101.097)" fill="#d1d3d4"/><path d="M150,118.693H119.926a1.053,1.053,0,0,1,0-2.093H150a1.053,1.053,0,0,1,0,2.093Z" transform="translate(104.603 107.985)" fill="#d1d3d4"/><path d="M150.08,125.32H120a1.036,1.036,0,1,1,0-2.07H150.08a1.036,1.036,0,1,1,0,2.07Z" transform="translate(104.525 116.298)" fill="#d1d3d4"/><rect width="30.053" height="39.759" transform="translate(279.875 213.222)" fill="#fff"/><path d="M173.8,152.941H143.723a1.077,1.077,0,0,1-1.073-1.058V112.125a1.078,1.078,0,0,1,1.073-1.035H173.8a1.055,1.055,0,0,1,1.073,1.035v39.759a1.016,1.016,0,0,1-.306.746A1.093,1.093,0,0,1,173.8,152.941Zm-28.98-2.093h28V113.138h-28Z" transform="translate(136.151 101.097)" fill="#d1d3d4"/><path d="M150.163,152.941a1.077,1.077,0,0,1-1.073-1.058V112.125a1.078,1.078,0,0,1,1.073-1.035,1.055,1.055,0,0,1,1.073,1.035v39.759a1.015,1.015,0,0,1-.306.746,1.093,1.093,0,0,1-.767.311Z" transform="translate(144.738 101.097)" fill="#d1d3d4"/><path d="M173.722,118.693H143.646a1.053,1.053,0,0,1,0-2.093h30.076a1.053,1.053,0,0,1,0,2.093Z" transform="translate(136.229 107.985)" fill="#d1d3d4"/><path d="M173.8,125.32H143.723a1.036,1.036,0,1,1,0-2.07H173.8a1.036,1.036,0,1,1,0,2.07Z" transform="translate(136.151 116.298)" fill="#d1d3d4"/><rect width="30.053" height="39.759" transform="translate(335.221 213.222)" fill="#fff"/><path d="M197.5,152.941H167.443a1.093,1.093,0,0,1-.767-.311,1.015,1.015,0,0,1-.306-.746V112.125a1.055,1.055,0,0,1,1.073-1.035H197.5a1.078,1.078,0,0,1,1.073,1.035v39.759a1.077,1.077,0,0,1-1.074,1.058Zm-28.98-2.093h28V113.138h-28Z" transform="translate(167.778 101.097)" fill="#d1d3d4"/><path d="M173.883,152.941a1.077,1.077,0,0,1-1.073-1.058V112.125a1.074,1.074,0,0,1,2.147,0v39.759a1.077,1.077,0,0,1-1.074,1.058Z" transform="translate(176.364 101.097)" fill="#d1d3d4"/><path d="M197.419,118.693H167.365a1.053,1.053,0,0,1,0-2.093h30.053a1.053,1.053,0,0,1,0,2.093Z" transform="translate(167.856 107.985)" fill="#d1d3d4"/><path d="M197.5,125.32H167.443a1.036,1.036,0,1,1,0-2.07H197.5a1.036,1.036,0,1,1,0,2.07Z" transform="translate(167.778 116.298)" fill="#d1d3d4"/><rect width="30.053" height="39.759" transform="translate(390.567 213.222)" fill="#fff"/><path d="M221.23,152.941H191.177a1.078,1.078,0,0,1-1.1-1.058V112.125a1.079,1.079,0,0,1,1.1-1.035H221.23a1.078,1.078,0,0,1,1.073,1.035v39.759a1.077,1.077,0,0,1-1.074,1.058Zm-29-2.093h28V113.138h-28Z" transform="translate(199.391 101.097)" fill="#d1d3d4"/><path d="M197.613,152.941a1.093,1.093,0,0,1-.767-.311,1.015,1.015,0,0,1-.306-.746V112.125a1.055,1.055,0,0,1,1.073-1.035,1.078,1.078,0,0,1,1.073,1.035v39.759a1.077,1.077,0,0,1-1.074,1.058Z" transform="translate(208.004 101.097)" fill="#d1d3d4"/><path d="M221.321,118.7H191.268a1.113,1.113,0,0,1-1.081-.474,1.026,1.026,0,0,1,0-1.145,1.113,1.113,0,0,1,1.081-.474h30.053a1.053,1.053,0,0,1,0,2.093Z" transform="translate(199.3 107.979)" fill="#d1d3d4"/><path d="M221.216,125.32H191.163a1.036,1.036,0,1,1,0-2.07h30.053a1.036,1.036,0,1,1,0,2.07Z" transform="translate(199.404 116.298)" fill="#d1d3d4"/><rect width="30.053" height="39.759" transform="translate(445.89 213.222)" fill="#fff"/><path d="M244.95,152.941H214.873a1.077,1.077,0,0,1-1.073-1.058V112.125a1.078,1.078,0,0,1,1.073-1.035H244.95a1.078,1.078,0,0,1,1.073,1.035v39.759a1.077,1.077,0,0,1-1.073,1.058Zm-29-2.093h28V113.138h-28Z" transform="translate(231.017 101.097)" fill="#d1d3d4"/><path d="M221.337,152.868a1.078,1.078,0,0,1-1.1-1.058V112.052a1.1,1.1,0,0,1,2.17,0v39.759a1.077,1.077,0,0,1-1.074,1.058Z" transform="translate(239.604 101.17)" fill="#d1d3d4"/><path d="M244.872,118.693H214.8a1.053,1.053,0,0,1,0-2.093h30.077a1.053,1.053,0,0,1,0,2.093Z" transform="translate(231.095 107.985)" fill="#d1d3d4"/><path d="M244.95,125.32H214.873a1.036,1.036,0,1,1,0-2.07H244.95a1.036,1.036,0,1,1,0,2.07Z" transform="translate(231.017 116.298)" fill="#d1d3d4"/><rect width="30.053" height="39.759" transform="translate(169.205 293.819)" fill="#fff"/><path d="M126.36,188.761H96.283a1.078,1.078,0,0,1-1.073-1.035V147.945a1.078,1.078,0,0,1,1.073-1.035H126.36a1.078,1.078,0,0,1,1.073,1.035v39.781a1.078,1.078,0,0,1-1.073,1.035Zm-28.98-2.07h28V148.98h-28Z" transform="translate(72.899 145.874)" fill="#d1d3d4"/><path d="M102.733,188.761a1.055,1.055,0,0,1-1.073-1.035V147.945a1.055,1.055,0,0,1,1.073-1.035,1.078,1.078,0,0,1,1.073,1.035v39.781a1.078,1.078,0,0,1-1.073,1.035Z" transform="translate(81.499 145.874)" fill="#d1d3d4"/><path d="M126.36,154.5H96.283a1.078,1.078,0,0,1-1.073-1.035,1.055,1.055,0,0,1,1.073-1.035H126.36a1.055,1.055,0,0,1,1.073,1.035,1.078,1.078,0,0,1-1.073,1.035Z" transform="translate(72.899 152.774)" fill="#d1d3d4"/><path d="M126.36,161.15H96.283a1.055,1.055,0,0,1-1.073-1.035,1.078,1.078,0,0,1,1.073-1.035H126.36a1.078,1.078,0,0,1,1.073,1.035,1.055,1.055,0,0,1-1.073,1.035Z" transform="translate(72.899 161.087)" fill="#d1d3d4"/><rect width="30.053" height="39.759" transform="translate(224.528 293.819)" fill="#fff"/><path d="M150.08,188.761H120a1.078,1.078,0,0,1-1.073-1.035V147.945A1.078,1.078,0,0,1,120,146.91H150.08a1.078,1.078,0,0,1,1.073,1.035v39.781A1.078,1.078,0,0,1,150.08,188.761Zm-29-2.07h28V148.98h-28Z" transform="translate(104.525 145.874)" fill="#d1d3d4"/><path d="M126.443,188.761a1.078,1.078,0,0,1-1.073-1.035V147.945a1.078,1.078,0,0,1,1.073-1.035,1.055,1.055,0,0,1,1.073,1.035v39.781A1.055,1.055,0,0,1,126.443,188.761Z" transform="translate(113.112 145.874)" fill="#d1d3d4"/><path d="M150.08,154.5H120a1.078,1.078,0,0,1-1.073-1.035A1.055,1.055,0,0,1,120,152.43H150.08a1.055,1.055,0,0,1,1.073,1.035A1.078,1.078,0,0,1,150.08,154.5Z" transform="translate(104.525 152.774)" fill="#d1d3d4"/><path d="M150.08,161.15H120a1.055,1.055,0,0,1-1.073-1.035A1.078,1.078,0,0,1,120,159.08H150.08a1.078,1.078,0,0,1,1.073,1.035,1.055,1.055,0,0,1-1.073,1.035Z" transform="translate(104.525 161.087)" fill="#d1d3d4"/><rect width="30.053" height="39.759" transform="translate(390.567 293.819)" fill="#fff"/><path d="M221.23,188.761H191.177a1.079,1.079,0,0,1-1.1-1.035V147.945a1.079,1.079,0,0,1,1.1-1.035H221.23a1.078,1.078,0,0,1,1.073,1.035v39.781A1.078,1.078,0,0,1,221.23,188.761Zm-29-2.07h28V148.98h-28Z" transform="translate(199.391 145.874)" fill="#d1d3d4"/><path d="M197.613,188.761a1.055,1.055,0,0,1-1.073-1.035V147.945a1.055,1.055,0,0,1,1.073-1.035,1.078,1.078,0,0,1,1.073,1.035v39.781A1.078,1.078,0,0,1,197.613,188.761Z" transform="translate(208.004 145.874)" fill="#d1d3d4"/><path d="M221.23,154.5H191.177a1.079,1.079,0,0,1-1.1-1.035,1.017,1.017,0,0,1,.323-.74,1.1,1.1,0,0,1,.774-.295H221.23a1.055,1.055,0,0,1,1.073,1.035A1.078,1.078,0,0,1,221.23,154.5Z" transform="translate(199.391 152.774)" fill="#d1d3d4"/><path d="M221.23,161.15H191.177a1.1,1.1,0,0,1-.774-.3,1.017,1.017,0,0,1-.323-.74,1.079,1.079,0,0,1,1.1-1.035H221.23a1.078,1.078,0,0,1,1.073,1.035,1.055,1.055,0,0,1-1.073,1.035Z" transform="translate(199.391 161.087)" fill="#d1d3d4"/><rect width="30.053" height="39.759" transform="translate(445.89 293.819)" fill="#fff"/><path d="M244.95,188.761H214.873a1.078,1.078,0,0,1-1.073-1.035V147.945a1.078,1.078,0,0,1,1.073-1.035H244.95a1.078,1.078,0,0,1,1.073,1.035v39.781A1.078,1.078,0,0,1,244.95,188.761Zm-29-2.07h28V148.98h-28Z" transform="translate(231.017 145.874)" fill="#d1d3d4"/><path d="M221.337,188.688a1.079,1.079,0,0,1-1.1-1.035V147.872a1.1,1.1,0,0,1,2.17,0v39.781a1.078,1.078,0,0,1-1.073,1.035Z" transform="translate(239.604 145.947)" fill="#d1d3d4"/><path d="M244.95,154.5H214.873a1.078,1.078,0,0,1-1.073-1.035,1.055,1.055,0,0,1,1.073-1.035H244.95a1.055,1.055,0,0,1,1.073,1.035A1.078,1.078,0,0,1,244.95,154.5Z" transform="translate(231.017 152.774)" fill="#d1d3d4"/><path d="M244.95,161.15H214.873a1.055,1.055,0,0,1-1.073-1.035,1.078,1.078,0,0,1,1.073-1.035H244.95a1.078,1.078,0,0,1,1.073,1.035,1.055,1.055,0,0,1-1.073,1.035Z" transform="translate(231.017 161.087)" fill="#d1d3d4"/><path d="M163.543,67.211a1.071,1.071,0,0,1-.766-.3.994.994,0,0,1-.307-.739V31.255a.994.994,0,0,1,.307-.739,1.071,1.071,0,0,1,.766-.3,1.055,1.055,0,0,1,1.073,1.035V66.176A1.055,1.055,0,0,1,163.543,67.211Z" transform="translate(162.578 0.005)" fill="#d1d3d4"/><path d="M181.137,63.661a17.6,17.6,0,0,1-6.813-1.35,31.938,31.938,0,0,1-5.04-2.835c-.84-.54-1.68-1.08-2.543-1.6a29.247,29.247,0,0,0-29.376.788,1.1,1.1,0,0,1-1.4-.158,1.029,1.029,0,0,1,0-1.35c7-8.3,14.327-13.208,22.027-14.625a53.432,53.432,0,0,1,11.667-.36,55.644,55.644,0,0,0,9.87-.112,27.2,27.2,0,0,0,18.83-11.385,1.122,1.122,0,0,1,1.493-.293,1.034,1.034,0,0,1,.3,1.44A29.474,29.474,0,0,1,179.807,44.13a59.976,59.976,0,0,1-10.243.113,51.184,51.184,0,0,0-11.177.315,32.921,32.921,0,0,0-16.893,9.7,31.183,31.183,0,0,1,26.39,1.845c.91.518,1.773,1.08,2.637,1.643a29.909,29.909,0,0,0,4.667,2.678c7.863,3.285,17.057-.855,22.7-6.39a1.1,1.1,0,0,1,1.517,0,.988.988,0,0,1,0,1.463,27.453,27.453,0,0,1-18.27,8.168Z" transform="translate(126.901 0)" fill="#d1d3d4"/><path d="M166.517,74.22V89.768l-8.937-3.42" transform="translate(156.058 55.007)" fill="#fff"/><path d="M167.133,91.378a1.137,1.137,0,0,1-.4,0L157.8,87.8a1.035,1.035,0,0,1-.594-.54.979.979,0,0,1-.013-.787,1.029,1.029,0,0,1,.569-.583,1.086,1.086,0,0,1,.831,0l7.467,2.858V74.8a1.074,1.074,0,0,1,2.147,0V90.343a1.047,1.047,0,0,1-.467.855,1,1,0,0,1-.607.18Z" transform="translate(155.441 54.432)" fill="#d1d3d4"/><path d="M151.8,141.3a2.112,2.112,0,0,0-.91-.7,3.493,3.493,0,0,0-1.213-.225H149a3.243,3.243,0,0,0-.653.248,1.225,1.225,0,0,0-.49.4,1.108,1.108,0,0,0,.257,1.553,3.936,3.936,0,0,0,1.167.54c.49.158.98.315,1.54.45a6.9,6.9,0,0,1,1.517.63,3.834,3.834,0,0,1,1.167,1.1,3.345,3.345,0,0,1,.467,1.845,4.167,4.167,0,0,1-.42,1.935,4.539,4.539,0,0,1-1.167,1.373,5.193,5.193,0,0,1-1.68.788,7.754,7.754,0,0,1-4.5-.135,6.061,6.061,0,0,1-2.123-1.26l2.147-2.25a3.313,3.313,0,0,0,1.167.922,3.658,3.658,0,0,0,1.47.315h.747a3,3,0,0,0,.677-.27,1.754,1.754,0,0,0,.49-.428,1.028,1.028,0,0,0,.163-.607,1.067,1.067,0,0,0-.467-.945,4.1,4.1,0,0,0-1.19-.585l-1.54-.5a6.354,6.354,0,0,1-1.563-.652,3.82,3.82,0,0,1-1.19-1.08,3.106,3.106,0,0,1-.467-1.778,3.757,3.757,0,0,1,.443-1.868,4.224,4.224,0,0,1,1.143-1.327,5.234,5.234,0,0,1,1.68-.81,7.094,7.094,0,0,1,1.96-.27,7.483,7.483,0,0,1,2.333.315,5.164,5.164,0,0,1,1.96,1.058Z" transform="translate(138.058 134.385)" fill="#d1d3d4"/><path d="M158.624,141.551a2.934,2.934,0,0,0-1.1-.788,3.468,3.468,0,0,0-1.493-.292,4.141,4.141,0,0,0-1.587.315,4.426,4.426,0,0,0-1.259.9,3.8,3.8,0,0,0-.817,1.35,4.914,4.914,0,0,0,0,3.4,4,4,0,0,0,.817,1.35,3.4,3.4,0,0,0,1.237.878,3.859,3.859,0,0,0,3.15,0,3.11,3.11,0,0,0,1.19-1.058l2.52,1.823a5.31,5.31,0,0,1-2.217,1.733,7.222,7.222,0,0,1-2.753.562,8.414,8.414,0,0,1-2.963-.5,6.718,6.718,0,0,1-2.333-1.4,6.242,6.242,0,0,1-1.54-2.25,8,8,0,0,1,0-5.76,6.468,6.468,0,0,1,1.54-2.25,7.046,7.046,0,0,1,2.333-1.395,8.972,8.972,0,0,1,2.963-.473,7.551,7.551,0,0,1,1.213,0,5.9,5.9,0,0,1,1.237.338,4.729,4.729,0,0,1,1.167.585,4.881,4.881,0,0,1,1.027.923Z" transform="translate(144.537 134.335)" fill="#d1d3d4"/><path d="M154.97,137.88H158v4.928h5.857V137.88h2.94v13.208h-3.01v-5.715h-5.857v5.715H154.9Z" transform="translate(152.485 134.586)" fill="#d1d3d4"/><path d="M160.91,144.7a7.235,7.235,0,0,1,.56-2.88,6.467,6.467,0,0,1,1.54-2.25,7.045,7.045,0,0,1,2.333-1.395,9.539,9.539,0,0,1,5.927,0,6.833,6.833,0,0,1,2.333,1.395,5.883,5.883,0,0,1,1.54,2.25,7.236,7.236,0,0,1,.56,2.88,7.148,7.148,0,0,1-.56,2.88,5.7,5.7,0,0,1-1.54,2.25,6.5,6.5,0,0,1-2.333,1.4,9.128,9.128,0,0,1-5.927,0,6.717,6.717,0,0,1-2.333-1.4,6.242,6.242,0,0,1-1.54-2.25A7.148,7.148,0,0,1,160.91,144.7Zm3.15,0a4.487,4.487,0,0,0,.3,1.71,3.68,3.68,0,0,0,2.193,2.25,4.385,4.385,0,0,0,1.75.315,4.312,4.312,0,0,0,1.75-.315,3.651,3.651,0,0,0,1.353-.878,4.118,4.118,0,0,0,.863-1.35,4.914,4.914,0,0,0,0-3.4,3.9,3.9,0,0,0-.863-1.35,4.02,4.02,0,0,0-1.353-.9,5.019,5.019,0,0,0-3.5,0,4.255,4.255,0,0,0-1.353.9,3.532,3.532,0,0,0-.84,1.35A4.357,4.357,0,0,0,164.06,144.7Z" transform="translate(160.497 134.361)" fill="#d1d3d4"/><path d="M167.81,144.7a7.237,7.237,0,0,1,.56-2.88,6.468,6.468,0,0,1,1.54-2.25,7.046,7.046,0,0,1,2.333-1.395,9.54,9.54,0,0,1,5.927,0,7.187,7.187,0,0,1,2.333,1.4,6.1,6.1,0,0,1,1.517,2.25,7.236,7.236,0,0,1,.56,2.88,7.149,7.149,0,0,1-.56,2.88,5.9,5.9,0,0,1-1.517,2.25,6.81,6.81,0,0,1-2.333,1.4,9.128,9.128,0,0,1-5.927,0,6.717,6.717,0,0,1-2.333-1.4,6.242,6.242,0,0,1-1.54-2.25,7.149,7.149,0,0,1-.56-2.88Zm3.15,0a4.487,4.487,0,0,0,.3,1.71,3.47,3.47,0,0,0,.863,1.35,3.765,3.765,0,0,0,1.33.878,4.482,4.482,0,0,0,1.75.315,4.313,4.313,0,0,0,1.75-.315,3.65,3.65,0,0,0,1.353-.878,4.118,4.118,0,0,0,.863-1.35,4.914,4.914,0,0,0,0-3.4,3.9,3.9,0,0,0-.863-1.35,4.02,4.02,0,0,0-1.353-.9,5.018,5.018,0,0,0-3.5,0,4.157,4.157,0,0,0-1.33.9,3.314,3.314,0,0,0-.863,1.35A4.356,4.356,0,0,0,170.96,144.7Z" transform="translate(169.697 134.361)" fill="#d1d3d4"/><path d="M175.08,137.88h3.01v10.508h5.6v2.7h-8.61Z" transform="translate(179.391 134.586)" fill="#d1d3d4"/><path d="M219.14,205.637a62.435,62.435,0,0,1,7.49-18.226c4.083-6.075,10.663-11.07,18.177-11.5s15.47,4.905,15.983,12.15a12.194,12.194,0,0,1,15.307-7.336,11.565,11.565,0,0,1,7.607,14.761c4.106-5.018,12.413-5.378,18.036-1.98a22.562,22.562,0,0,1,9.123,12.128Z" transform="translate(238.137 182.1)" fill="#fff"/><path d="M311.471,207.246H219.748a1.087,1.087,0,0,1-.846-.409,1.006,1.006,0,0,1-.181-.9,62.986,62.986,0,0,1,7.607-18.518c4.667-7.088,11.877-11.565,19.017-11.97a16.808,16.808,0,0,1,16.333,9.9,13.356,13.356,0,0,1,5.2-4.5,12.941,12.941,0,0,1,10.2-.963,12.366,12.366,0,0,1,7.533,6.7,12.956,12.956,0,0,1,1.33,6.525,16.487,16.487,0,0,1,16.847.113,23.357,23.357,0,0,1,9.567,12.668.983.983,0,0,1-.14.945,1.036,1.036,0,0,1-.746.405Zm-90.3-2.07h88.666a21.021,21.021,0,0,0-8.167-10.215c-4.9-2.948-12.74-2.97-16.613,1.755a1.124,1.124,0,0,1-1.377.247.974.974,0,0,1-.467-1.26,10.47,10.47,0,0,0-.513-8.258,11.09,11.09,0,0,0-10.7-5.9,10.945,10.945,0,0,0-9.673,7.359,1.073,1.073,0,0,1-1.137.74,1.054,1.054,0,0,1-.963-.943c-.49-6.863-8.283-11.61-14.84-11.25s-12.973,4.5-17.36,11.025a58.623,58.623,0,0,0-6.86,16.7Z" transform="translate(237.529 181.526)" fill="#d1d3d4"/><path d="M151.529,205.649a63.008,63.008,0,0,0-7.4-18.248c-4.107-6.075-10.687-11.07-18.2-11.5s-15.47,4.905-15.983,12.15a11.918,11.918,0,0,0-9.05-8.159A12.35,12.35,0,0,0,89.157,183.7a11.332,11.332,0,0,0-2.1,11.775C82.93,190.461,74.623,190.1,69,193.5a22.559,22.559,0,0,0-9.1,12.128Z" transform="translate(25.819 182.087)" fill="#fff"/><path d="M152.192,207.283h-91.7a1.111,1.111,0,0,1-.887-.427.983.983,0,0,1-.14-.945,23.559,23.559,0,0,1,9.567-12.668,16.56,16.56,0,0,1,16.847-.135,12.914,12.914,0,0,1,1.33-6.5,13.053,13.053,0,0,1,7.537-6.75,13.523,13.523,0,0,1,10.2.968,13.356,13.356,0,0,1,5.2,4.5,16.831,16.831,0,0,1,16.333-9.9c7.163.405,14.257,4.883,19.017,11.97A63,63,0,0,1,153.219,206a1.027,1.027,0,0,1-.163.9,1.09,1.09,0,0,1-.863.383Zm-90.183-2.07h88.666a58.7,58.7,0,0,0-7-16.628c-4.387-6.525-10.873-10.665-17.36-11.025s-14.35,4.32-14.84,11.25a1.054,1.054,0,0,1-.963.943,1.073,1.073,0,0,1-1.137-.74,11.593,11.593,0,0,0-14-7.065,10.727,10.727,0,0,0-6.253,5.6,10.276,10.276,0,0,0-.513,8.258,1.019,1.019,0,0,1-.49,1.26,1.149,1.149,0,0,1-1.377-.248c-3.85-4.725-11.667-4.7-16.613-1.755a21.022,21.022,0,0,0-8.12,10.148Z" transform="translate(25.156 181.489)" fill="#d1d3d4"/><path d="M306.866,95.63a608.961,608.961,0,0,1-28,136.219c-4.06,12.42-8.563,25.4-5.857,38.251a5.819,5.819,0,0,0,1.47,3.2c3.08,2.835,7.56-1.6,9.333-5.355,15.423-34.043,30.707-68.559,37.333-105.145,3.15-17.483,3.85-36.923-6.767-51.414" transform="translate(308.867 81.771)" fill="#fff"/><path d="M277.414,275.929a4.446,4.446,0,0,1-3.057-1.238,6.647,6.647,0,0,1-1.82-3.8c-2.683-12.6,1.47-25.223,5.483-37.419l.42-1.305a608.529,608.529,0,0,0,28-135.994,1.111,1.111,0,0,1,.415-.8,1.23,1.23,0,0,1,1.988,1.005,612.648,612.648,0,0,1-28,136.489l-.443,1.305c-3.9,11.925-7.957,24.256-5.413,36.248A4.707,4.707,0,0,0,276.13,273a1.862,1.862,0,0,0,1.82.54,9.934,9.934,0,0,0,5.507-5.513c14.257-31.5,30.333-67.209,37.217-104.875,4.107-22.771,2.03-38.836-6.557-50.559a1.143,1.143,0,0,1,.28-1.62,1.225,1.225,0,0,1,.9-.2,1.194,1.194,0,0,1,.776.489c8.983,12.263,11.2,28.868,7,52.291C316.24,201.5,300,237.341,285.744,268.954c-1.353,2.993-4.27,6.3-7.257,6.885A6.233,6.233,0,0,1,277.414,275.929Z" transform="translate(308.196 81.116)" fill="#231f20"/><path d="M296.924,240.88a81.12,81.12,0,0,1,4.667,14.22c.257,2.5-11.293,5.76-10.477,5.828s2.73,19.8,9.707,21.151,26.3-13.883,29.26-18-14.513-32.738-14.513-32.738Z" transform="translate(334.046 251.417)" fill="#fff"/><path d="M302.365,283.83a6.358,6.358,0,0,1-1.143,0c-5.95-1.17-8.4-12.623-9.73-18.788-.233-1.057-.49-2.25-.63-2.723a1.11,1.11,0,0,1-.327-.63c-.163-.99.42-1.215,2.333-1.913,6.393-2.25,7.957-3.488,8.167-4.05a85.492,85.492,0,0,0-4.387-13.5,1.352,1.352,0,0,1-.163-.945,1.224,1.224,0,0,1,.607-.743l18.667-9.473a1.214,1.214,0,0,1,1.587.428c4.2,6.885,17.617,29.656,14.467,33.976C328.988,269.069,310.858,283.83,302.365,283.83Zm-9.077-21.8c.163.608.327,1.4.56,2.453,1.027,4.838,3.453,16.133,7.863,16.988,6.3,1.215,25.107-13.5,28-17.483,1.493-2.093-6-17.258-14-30.511l-16.52,8.438a88.4,88.4,0,0,1,4.2,13.5c.257,2.25-3.22,3.983-9.707,6.368Z" transform="translate(333.295 250.903)" fill="#231f20"/><path d="M329.872,260.843a63,63,0,0,1-16.543-17.573s-16.893,8.685-20.02,10.643c-13.277,8.37-21.21,20.251-16.893,21.241s43.7-2.07,53.666-4.275S329.872,260.843,329.872,260.843Z" transform="translate(312.928 266.33)" fill="#231f20"/><path d="M280.347,277.092a20.482,20.482,0,0,1-3.5-.18,2.5,2.5,0,0,1-2.077-2.047c-.77-4.028,7-14,18.667-21.286,3.127-1.958,19.437-10.35,20.113-10.71a1.215,1.215,0,0,1,1.587.405,62.37,62.37,0,0,0,16.17,17.236h0c.583.45,5.717,4.5,4.853,8.28-.443,1.845-2.193,3.105-5.2,3.78C322.766,274.527,291.453,277.092,280.347,277.092Zm33.273-31.5c-3.663,1.868-16.333,8.46-18.947,10.1-11.527,7.245-17.99,16.493-17.523,18.9,0,.158,0,.18.21.2,3.943.832,43.166-2.048,53.06-4.253,1.4-.315,3.127-.923,3.383-2.048.42-1.8-2.45-4.748-3.967-5.918a63.8,63.8,0,0,1-16.217-16.988Z" transform="translate(312.24 265.651)" fill="#231f20"/><path d="M293.5,55.362a27.458,27.458,0,0,1,9.893-9.968,23.55,23.55,0,0,1,24.92.968,9.874,9.874,0,0,1,7.98-3.015c10.1.428,17.337,8.8,22,16.673,5.343,9,7,19.4,11.667,28.711.77,1.575,15.027,19.1,17.873,15.638-3.92,4.77-8,9.428-12.227,13.928a49.929,49.929,0,0,1-12.973,10.71,47.413,47.413,0,0,1-18.667,4.3,147.842,147.842,0,0,1-65.636-10.53,262.508,262.508,0,0,1,7.49-43.921C287.92,70.572,289.437,62.224,293.5,55.362Z" transform="translate(317.056 15.094)" fill="#fff"/><path d="M334.552,135.428a148.939,148.939,0,0,1-56-10.958,1.121,1.121,0,0,1-.7-1.125,267.435,267.435,0,0,1,7.35-44.1c.4-1.485.747-2.97,1.12-4.5a70.119,70.119,0,0,1,6.72-19.328h0a28.879,28.879,0,0,1,10.313-10.373,24.717,24.717,0,0,1,25.363.45,11.537,11.537,0,0,1,8.19-2.655c8.68.36,16.333,6.165,22.96,17.258a83.321,83.321,0,0,1,6.79,16.155,103.724,103.724,0,0,0,4.877,12.6c1.26,2.43,13.627,16.493,15.89,15.435a1.245,1.245,0,0,1,1.657-.18,1.1,1.1,0,0,1,.187,1.575c-3.9,4.77-8.05,9.473-12.273,14a51.14,51.14,0,0,1-13.277,10.935,49.325,49.325,0,0,1-19.156,4.5C341.2,135.315,337.912,135.428,334.552,135.428Zm-54.413-12.713a146.608,146.608,0,0,0,64.33,10.125,47.225,47.225,0,0,0,18.223-4.163,48.271,48.271,0,0,0,12.623-10.485c3.64-3.848,7.187-7.853,10.593-11.925-5.623-2.25-15.89-15.345-16.333-16.4a104.91,104.91,0,0,1-5.04-12.87,82.456,82.456,0,0,0-6.58-15.75c-6.16-10.35-13.23-15.75-21-16.11a8.5,8.5,0,0,0-7,2.61,1.221,1.221,0,0,1-1.587.2A22.25,22.25,0,0,0,304.732,47a26.837,26.837,0,0,0-9.5,9.585h0a68.729,68.729,0,0,0-6.487,18.72c-.35,1.485-.723,2.993-1.12,4.5a265.863,265.863,0,0,0-7.49,42.909Z" transform="translate(316.414 14.433)" fill="#231f20"/><path d="M311.86,240.278s1.867,19.193,0,21.668-11.83,5.873-11.83,5.873,5.367,10.823,15.867,9.473,23.1-8.573,23.1-8.573l2.147-33.638Z" transform="translate(345.989 256.092)" fill="#fff"/><path d="M314.7,279.211c-9.893,0-14.887-9.81-15.12-10.26a1.181,1.181,0,0,1,.723-1.6c3.71-1.26,10.033-3.87,11.247-5.468s.653-11.88-.233-20.858a1.179,1.179,0,0,1,1-1.26l29.283-5.175a1.221,1.221,0,0,1,1.027.27,1.193,1.193,0,0,1,.4.945l-2.147,33.616a1.122,1.122,0,0,1-.607.923c-.513.315-12.95,7.358-23.566,8.73a14.953,14.953,0,0,1-2.007.135Zm-12.3-10.125c1.633,2.588,6.323,8.708,14,7.7,8.89-1.148,19.6-6.75,22.1-8.123l2.03-31.5-26.693,4.725c.513,5.535,1.517,18.945-.327,21.4s-8.143,4.725-11.013,5.805Z" transform="translate(345.254 255.454)" fill="#231f20"/><path d="M329.76,257.78l-8.33-11.25s-40.063,20.25-38.453,27,83.86,1.575,83.86.9-1.61-22.748-1.61-22.748S339.233,262.978,329.76,257.78Z" transform="translate(323.189 270.405)" fill="#231f20"/><path d="M311.917,278.848c-28.373,0-29.05-2.88-29.4-4.343-1.68-7.088,29.47-23.513,39.06-28.373a1.241,1.241,0,0,1,1.54.36l8.167,11.07c7.443,3.758,27.137-3.173,34.16-6.21a1.3,1.3,0,0,1,1.12,0,1.163,1.163,0,0,1,.56.923c.28,3.69,1.633,22.118,1.633,22.816,0,1.1-1.027,1.215-2.45,1.372-5.367.585-25.5,1.868-44.823,2.25C318.007,278.825,314.811,278.848,311.917,278.848Zm9.847-30.2c-18.667,9.518-37.753,21.758-36.89,25.336,2.66,4.5,70.676,2.048,81.41.247-.187-2.993-.887-12.668-1.423-20.116-5.9,2.385-26.46,10.058-35,5.333a1.407,1.407,0,0,1-.4-.337Z" transform="translate(322.552 269.746)" fill="#231f20"/><path d="M325.8,86.13s42,38.566,45.313,49.5-5.647,9.135-5.647,9.135,24.99,46.059,9.66,72.452-54.81,9.135-56.42,4.073-.42-105.978,2.007-118.848S325.8,86.13,325.8,86.13Z" transform="translate(369.915 69.895)" fill="#231f20"/><path d="M349.207,233.259q-2.537-.011-5.063-.27c-12.81-1.328-24.8-7.47-25.877-10.8-1.913-6.053-.233-107.575,1.983-119.388,2.45-12.983,5.2-16.583,5.32-16.74a1.25,1.25,0,0,1,.863-.45,1.312,1.312,0,0,1,.91.315c1.727,1.6,42.373,38.926,45.64,49.951,1.237,4.1.957,7.088-.793,9a6.17,6.17,0,0,1-4.037,1.755,153.941,153.941,0,0,1,9.777,24.751c5.833,19.958,5.507,35.776-1.027,47C370.09,230.222,358.82,233.259,349.207,233.259ZM326.83,88.738a58.77,58.77,0,0,0-4.2,14.58c-2.5,13.253-3.43,113.966-2.053,118.286.56,1.778,10.687,7.808,23.823,9.158,9.73,1.013,22.913-.518,30.333-13.5,14.84-25.561-9.333-70.9-9.683-71.349a1.136,1.136,0,0,1,.117-1.238,1.165,1.165,0,0,1,1.19-.427,5.035,5.035,0,0,0,3.99-.968c1.12-1.193,1.213-3.51.257-6.75C367.873,126.989,333.527,94.881,326.83,88.738Z" transform="translate(369.192 69.245)" fill="#231f20"/><path d="M309.766,127.711S269.05,264.155,269.05,283.1s55.72,93.242,55.72,93.242l26.2-9.99S319.03,293.9,321.456,288.478s24.1-62.484,24.1-62.484,3.477,73.329,5.413,84.152,0,68.379,0,68.379,29.33,8.145,37.333,0c0,0,12.67-207.86,4.317-232.229S384.666,128,384.666,128Z" transform="translate(304.683 121.399)" fill="#231f20"/><path d="M375.706,383.983a105.69,105.69,0,0,1-24.36-3.645,1.154,1.154,0,0,1-.887-1.147c0-.158.14-4.32.3-10.553l-24.85,9.473a1.24,1.24,0,0,1-1.423-.4c-2.333-3.038-56-74.837-56-93.962S307.6,133.6,309.253,128.039a1.184,1.184,0,0,1,1.167-.855h0l74.013.338a1.42,1.42,0,0,1,.91-.653c1.307-.247,2.333-.4,9.147,19.733,8.33,24.323-3.757,224.2-4.27,232.7a1.085,1.085,0,0,1-.327.72C387.023,382.993,381.679,383.983,375.706,383.983Zm-22.75-5.625c8.47,2.25,28.63,5.963,35,.36.653-10.823,12.367-208.04,4.363-231.374a149.527,149.527,0,0,0-6.673-17.505h-.14l-74.106-.36C307.993,141,270.987,265.9,270.987,283.7c0,17.393,49.186,84.107,54.973,91.87l24.173-9.225c-6.323-14.333-31.477-72.249-29.05-77.672s23.87-61.854,24.08-62.439a1.22,1.22,0,0,1,1.33-.742,1.162,1.162,0,0,1,1,1.1c0,.72,3.523,73.374,5.413,83.995C354.706,320.846,353.189,370.685,352.956,378.358Zm-7.583-145.871c-5.483,14.423-20.09,52.7-22.073,57.129-1.353,3.87,15.54,45,27.673,72.744.42-17.843.77-44.439-.443-51.324C349.013,301.923,346.26,250.082,345.373,232.486Z" transform="translate(303.936 120.757)" fill="#231f20"/><path d="M293.081,93.134a58.04,58.04,0,0,0-7,17.46,46.543,46.543,0,0,0-1.493,16.043c1.12,10.238,7,19.215,14,26.663a139.632,139.632,0,0,1-3.057-21.758,68.789,68.789,0,0,1,5.647-29.431,66.765,66.765,0,0,1,7.3-13.1c1.377-1.868,3.71-3.533,1.61-5.558a5.953,5.953,0,0,0-5.437-1.53C299.964,83.3,295.624,89.174,293.081,93.134Z" transform="translate(325.195 64.467)" fill="#231f20"/><path d="M299.225,155.072a1.234,1.234,0,0,1-.887-.383c-8.61-9.36-13.3-18.293-14.28-27.338a46.586,46.586,0,0,1,1.517-16.425,58.49,58.49,0,0,1,7.21-17.8h0c4.27-6.75,8.4-10.575,12.273-11.633a7.173,7.173,0,0,1,6.627,1.823c2.45,2.385.56,4.5-.677,6.053l-.817,1.013a65,65,0,0,0-7.373,12.735,67.828,67.828,0,0,0-5.53,28.936,136.539,136.539,0,0,0,3.033,21.6,1.181,1.181,0,0,1-.653,1.26A1.409,1.409,0,0,1,299.225,155.072ZM294.838,94.32a56.325,56.325,0,0,0-7,17.123,44.327,44.327,0,0,0-1.447,15.75c.817,7.493,4.34,14.94,10.757,22.7a113.8,113.8,0,0,1-2.333-17.618,70.245,70.245,0,0,1,5.717-29.926,68.177,68.177,0,0,1,7.537-13.208c.28-.405.607-.788.91-1.148,1.517-1.755,1.61-2.25.817-2.948a4.78,4.78,0,0,0-4.247-1.238c-3.22.9-7,4.5-10.873,10.62Z" transform="translate(324.465 63.865)" fill="#231f20"/><path d="M297.667,93.151c-1.1,1.215-8.05,7.448-10.873,27s7.257,41.289,0,66.692l69.416,3.713s21.14-82.375,10.523-99.745S310.57,78.931,297.667,93.151Z" transform="translate(327.656 62.177)" fill="#50d890"/><path d="M331.687,162.087s-31.08-12.2-28.49-39.331c2.87-29.363,15.96-36.586,27.207-42.436,6.58,2.25,7.467,4.028,7.467,4.028s-23.333,6.75-23.707,23.4S309.661,147.1,331.687,162.087Z" transform="translate(350.008 62.633)" fill="#231f20"/><path d="M332.387,163.8a1.039,1.039,0,0,1-.443,0c-.327,0-31.966-12.825-29.26-40.5,2.987-30.443,16.777-37.6,27.836-43.336a1.23,1.23,0,0,1,.98,0c6.533,2.25,7.887,4.1,8.143,4.5a1.132,1.132,0,0,1,0,.99,1.223,1.223,0,0,1-.77.653c-.233,0-22.4,6.75-22.843,22.321,0,1.89-.14,3.87-.257,5.918-.77,15.413-1.727,34.583,17.267,47.409a1.147,1.147,0,0,1,.441,1.3,1.209,1.209,0,0,1-1.141.814Zm-1.213-81.632c-10.477,5.445-23.333,12.51-26.087,41.244-1.587,16.268,9.59,27,18.247,32.918-11.387-12.825-10.57-28.846-9.917-42.166,0-2.025.21-3.983.257-5.873.4-14.535,16.707-21.713,22.54-23.828a28.763,28.763,0,0,0-5.04-2.3Z" transform="translate(349.309 62.064)" fill="#231f20"/><path d="M341.9,109.768c1.213,1.688.817,36.226,0,37.576-5.32,9-10.407,18-15.7,27-3.78,6.345-7.583,12.69-11.55,18.923-7,10.958-18.853,17.685-27.44,27.5a15.459,15.459,0,0,0,11.34-1.643l-11.223,15.75c-2.193,3.083-4.5,6.75-3.407,10.328.957,3.06,16.613-5.918,18.41-7.628,7-6.75,10.827-16.4,17.477-23.513,5.483-5.85,11.667-11.093,17.127-17.235,9.613-10.935,22.936-23.468,28.35-37.126,4.853-12.2,9.683-57.557,9.683-57.557" transform="translate(324.135 89.909)" fill="#fff"/><path d="M285.777,247.485a2.783,2.783,0,0,1-.77,0,1.981,1.981,0,0,1-1.54-1.35c-1.26-4.073,1.167-7.988,3.547-11.25l8.867-12.375a16.41,16.41,0,0,1-8.283,0,1.217,1.217,0,0,1-.84-.788,1.1,1.1,0,0,1,.233-1.1,116.041,116.041,0,0,1,11.83-11.25,75.618,75.618,0,0,0,15.493-16.155c3.967-6.233,7.723-12.488,11.527-18.9l7.793-13.343q3.92-6.75,7.91-13.5c.63-2.093,1.05-33.751,0-36.473a1.071,1.071,0,0,1-.178-.843,1.1,1.1,0,0,1,.5-.71,1.313,1.313,0,0,1,1.727.36c1.68,2.363.887,37.418,0,38.814-2.683,4.5-5.3,9-7.91,13.5s-5.157,9-7.817,13.388c-3.8,6.413-7.56,12.69-11.55,18.968a78.653,78.653,0,0,1-15.96,16.65,136.591,136.591,0,0,0-10.2,9.428,14.155,14.155,0,0,0,8.4-1.845,1.222,1.222,0,0,1,1.52.17,1.117,1.117,0,0,1,.09,1.473L288.95,236.1c-2.007,2.835-4.107,6.1-3.29,9.135,2.333.4,14.56-6.12,16.333-7.943a66.231,66.231,0,0,0,9.193-12.15,77.357,77.357,0,0,1,8.237-11.25c2.45-2.61,5.087-5.13,7.607-7.56,3.22-3.083,6.533-6.255,9.52-9.653,1.937-2.25,4.013-4.5,6.137-6.75,8.33-9,17.757-19.305,22-30.016,4.667-11.925,9.543-56.814,9.59-57.264a1.229,1.229,0,0,1,2.139-.621,1.12,1.12,0,0,1,.264.846c-.187,1.868-4.9,45.676-9.753,57.849-4.41,11.115-14,21.533-22.447,30.736-2.123,2.25-4.177,4.5-6.09,6.75-3.057,3.465-6.417,6.75-9.66,9.788-2.52,2.408-5.11,4.905-7.513,7.47a78.106,78.106,0,0,0-8,10.98A65.827,65.827,0,0,1,303.7,239C302.437,240.262,290.513,247.485,285.777,247.485Z" transform="translate(323.446 89.243)" fill="#231f20"/><path d="M340.584,85.452s-20.417-6.75-28.49,12.623-5.95,41.536-5.95,41.536l46.666,2.25S359.951,92.608,340.584,85.452Z" transform="translate(353.805 67.625)" fill="#50d890"/><path d="M303.517,104.066l.3,19.823s1.493,10.71,15.073,7.38,15.26-12.758,15.26-12.758l-.607-37.148s-11.06-6.3-13.37-29.453c0,0-9.17,10.575-29.47,8.325,0,0-3.757,19.823-2.333,30.038S303.331,103.864,303.517,104.066Z" transform="translate(330.019 27.118)" fill="#fff"/><path d="M314.673,133.681a11.988,11.988,0,0,1-6.7-1.823,11.209,11.209,0,0,1-4.667-7.178l-.3-19.193c-5.343-1.89-14-6.143-15.1-14.378-1.47-10.283,2.147-29.566,2.333-30.4a1.162,1.162,0,0,1,1.283-.9c19.367,2.25,28.35-7.853,28.443-7.943a1.171,1.171,0,0,1,2.053.608c2.217,22.186,12.693,28.553,12.81,28.6a1.117,1.117,0,0,1,.56.968L336,119.123c0,.63-1.96,10.4-16.123,13.883a22.043,22.043,0,0,1-5.2.675Zm-9.03-9.18a8.976,8.976,0,0,0,3.663,5.513,12.68,12.68,0,0,0,9.963.81c12.623-3.105,14.327-11.52,14.4-11.858L333.06,82.65c-2.333-1.6-10.64-8.663-13.113-27.653-3.547,2.948-12.46,8.528-27.6,7.155-.747,4.163-3.36,20.048-2.123,28.643,1.027,7.29,9.217,11.093,14,12.713a1.871,1.871,0,0,1,.653.315,1.045,1.045,0,0,1,.443.855l.3,19.823Zm0,0Z" transform="translate(329.363 26.552)" fill="#231f20"/><path d="M304.12,68.907a8.6,8.6,0,0,1,2.963-4.635,15.868,15.868,0,0,1,4.667-2.25,6.647,6.647,0,0,1,2.87-.54,5.474,5.474,0,0,1,1.937.653,6.735,6.735,0,0,1,3.337,3.285,7.584,7.584,0,0,1,.233,3.758,15.962,15.962,0,0,1-1,4.028,10.647,10.647,0,0,1-5.912,5.647,11.2,11.2,0,0,1-8.321-.067" transform="translate(351.443 39.079)" fill="#fff"/><path d="M309.874,81.293a12.039,12.039,0,0,1-4.667-.923,1.109,1.109,0,0,1-.578-1.457,1.182,1.182,0,0,1,1.488-.613,9.942,9.942,0,0,0,7.426.077,9.451,9.451,0,0,0,5.267-5.049,14,14,0,0,0,.933-3.735,6.756,6.756,0,0,0-.163-3.218,5.777,5.777,0,0,0-2.777-2.7,4.448,4.448,0,0,0-1.54-.518,5.416,5.416,0,0,0-2.333.473,15.127,15.127,0,0,0-4.41,2.25,7.324,7.324,0,0,0-2.567,4.005,1.1,1.1,0,0,1-.517.7,1.18,1.18,0,0,1-.883.13,1.167,1.167,0,0,1-.735-.5,1.091,1.091,0,0,1-.152-.853,9.856,9.856,0,0,1,3.36-5.22,16.742,16.742,0,0,1,5.11-2.565,7.733,7.733,0,0,1,3.383-.607,7.412,7.412,0,0,1,2.333.788,7.907,7.907,0,0,1,3.873,3.78,8.387,8.387,0,0,1,.28,4.275,16.181,16.181,0,0,1-1.073,4.32,11.838,11.838,0,0,1-6.557,6.278A12.281,12.281,0,0,1,309.874,81.293Z" transform="translate(350.799 38.439)" fill="#231f20"/><path d="M300.028,61.14s-7.4,10.125-5.74,11.948,6.44.765,6.44.765" transform="translate(338.011 38.657)" fill="#fff"/><path d="M298.473,75.938a6.016,6.016,0,0,1-4.433-1.463c-1.843-2.048,2.053-8.393,5.67-13.32a1.18,1.18,0,0,1,1.069-.529,1.166,1.166,0,0,1,.986.661,1.092,1.092,0,0,1-.142,1.15c-3.383,4.635-6.067,9.63-5.763,10.665.77.788,3.593.653,5.227.292a1.2,1.2,0,0,1,1.435.866,1.154,1.154,0,0,1-.9,1.384,14.625,14.625,0,0,1-3.15.293Z" transform="translate(337.373 38.011)" fill="#231f20"/><path d="M2.4,0c1.33,0,2.41.8,2.412,1.779s-1.074,1.771-2.4,1.767S0,2.743,0,1.764,1.072-.006,2.4,0Z" transform="translate(645.379 100.745) rotate(-86.38)" fill="#231f20"/><path d="M2.4,0c1.33,0,2.41.8,2.412,1.779S3.74,3.546,2.41,3.542,0,2.742,0,1.763,1.071-.007,2.4,0Z" transform="matrix(0.07, -0.998, 0.998, 0.07, 628.487, 101.339)" fill="#231f20"/><path d="M304.046,77.937a25.62,25.62,0,0,1-12.04-3.668,1.107,1.107,0,0,1,.062-1.986,1.2,1.2,0,0,1,1.2.1s7.98,4.883,14.4,2.745a11.6,11.6,0,0,0,7-7.92,1.137,1.137,0,0,1,.589-.663,1.206,1.206,0,0,1,.9-.057,1.116,1.116,0,0,1,.723,1.418,13.663,13.663,0,0,1-8.423,9.338,13.313,13.313,0,0,1-4.41.7Z" transform="translate(334.506 45.26)" fill="#231f20"/><path d="M294.68,76.115s9.847,2.25,17.453-1.845c0,0-5.11,18.72-17.22,16.965Z" transform="translate(338.856 55.07)" fill="#231f20"/><path d="M297.19,93.136a12.547,12.547,0,0,1-1.8-.135,1.139,1.139,0,0,1-.98-1.1l-.233-15.143a1.089,1.089,0,0,1,.443-.878,1.223,1.223,0,0,1,1-.225s9.5,2.25,16.613-1.71a1.2,1.2,0,0,1,1.283,0,1.125,1.125,0,0,1,.42,1.193C313.733,75.968,308.9,93.136,297.19,93.136Zm-.467-2.25h.4c7.607,0,12.04-9.293,13.743-13.815a29.661,29.661,0,0,1-14.327,1.08Z" transform="translate(338.189 54.429)" fill="#231f20"/><path d="M353.459,130.961a1.155,1.155,0,0,1-.957-.5c-.163-.2-15.493-21.758-25.177-30.556a1.075,1.075,0,0,1,0-1.575,1.2,1.2,0,0,1,1.657,0c9.87,9,24.85,30.016,25.48,30.916a1.1,1.1,0,0,1-.3,1.553,1.177,1.177,0,0,1-.7.158Z" transform="translate(381.926 84.736)" fill="#fff"/><path d="M328.725,168.552a1.258,1.258,0,0,1-1.143-.788,12.463,12.463,0,0,1-.21-2.79c-.187-6.75-.723-24.256-7.98-34.583a1.087,1.087,0,0,1,.315-1.541,1.178,1.178,0,0,1,1.6.3c7.653,10.868,8.19,28.958,8.4,35.753v2.25a1.045,1.045,0,0,1-.055.826,1.108,1.108,0,0,1-.645.546Z" transform="translate(371.544 123.062)" fill="#fff"/><path d="M305.636,190.154a1.133,1.133,0,0,1-1.143-.923L299.01,158.27a1.146,1.146,0,0,1,.968-1.316,1.18,1.18,0,0,1,1.365.934l5.553,30.961a1.13,1.13,0,0,1-.957,1.283Z" transform="translate(344.606 158.409)" fill="#fff"/><path d="M283.662,275.3a.727.727,0,0,1-.3,0,1.121,1.121,0,0,1-.817-1.373c2.59-8.618,32.666-27,33.856-27.721a1.192,1.192,0,0,1,1.559.369,1.1,1.1,0,0,1-.3,1.521c-8.493,5.153-30.94,19.958-32.876,26.438a1.141,1.141,0,0,1-1.12.765Z" transform="translate(322.62 269.81)" fill="#fff"/><path d="M227.619,371.263a1.055,1.055,0,0,1-.957-.562L130.109,190.223a1,1,0,0,1-.047-1.11,1.085,1.085,0,0,1,1.023-.511,1.068,1.068,0,0,1,.914.676l96.623,180.477a.98.98,0,0,1,.076.794,1.025,1.025,0,0,1-.543.6.987.987,0,0,1-.537.112Z" transform="translate(119.175 197.986)" fill="#d1d3d4"/><path d="M292.067,317.7a1.082,1.082,0,0,1-1.073-.945c-1.47-14.378-6.137-24.751-13.86-31.1a23.957,23.957,0,0,0-18.27-4.815A16.611,16.611,0,0,0,247.2,288.02a1.092,1.092,0,0,1-1.213.444,1.04,1.04,0,0,1-.77-1.007c.373-22.186-7.443-42.481-21.513-55.689-15.587-14.648-38.8-19.036-56.42-10.688-9.823,4.68-17.967,15.3-14.56,25.021a.993.993,0,0,1-.392,1.212,1.08,1.08,0,0,1-1.312-.11c-12.763-10.508-29.05-14.31-42.49-9.923-15.073,4.905-24.92,20.881-21.49,34.9a.969.969,0,0,1-.327,1.013,1.128,1.128,0,0,1-1.1.2,26.03,26.03,0,0,0-33.88,31.456,1.059,1.059,0,0,1-.805,1.154,1.108,1.108,0,0,1-1.295-.614,28.175,28.175,0,0,1,34.953-34.516c-2.473-14.558,7.793-30.533,23.333-35.573,13.3-4.32,29.19-1.08,42,8.415-1.4-9.878,6.72-19.891,16.333-24.481,18.41-8.73,42.63-4.185,58.87,11.048,13.837,12.983,21.817,32.558,22.167,54.114a19.38,19.38,0,0,1,11.2-5.58,26.185,26.185,0,0,1,20,5.265c8.167,6.593,13.09,17.528,14.63,32.468a1.046,1.046,0,0,1-.957,1.125Z" transform="translate(10.884 230.782)" fill="#d1d3d4"/><path d="M83.071,252.717a.905.905,0,0,1-.98-1.373c2.893-6.1,8.167-10.845,12.833-15.03a37.315,37.315,0,0,1,11.083-7.74,31.533,31.533,0,0,1,13.627-1.418c16.053,1.193,28.583,8.168,33.506,18.676a1,1,0,0,1,.027.794,1.052,1.052,0,0,1-.564.579,1.114,1.114,0,0,1-1.423-.517c-4.667-9.81-16.45-16.335-31.71-17.46a29.29,29.29,0,0,0-12.67,1.283,35.582,35.582,0,0,0-10.43,7.313c-4.5,4.073-9.613,8.663-12.32,14.378a1.083,1.083,0,0,1-.98.517Z" transform="translate(55.288 245.925)" fill="#d1d3d4"/><path d="M78.625,186.836a1.117,1.117,0,0,1-.77-.315.988.988,0,0,1,0-1.462,15.742,15.742,0,0,1,19.11-1.418,1.025,1.025,0,0,1,.5.954,1.038,1.038,0,0,1-.641.874,1.106,1.106,0,0,1-1.1-.14,13.658,13.658,0,0,0-16.333,1.215A1.19,1.19,0,0,1,78.625,186.836Z" transform="translate(49.327 188.57)" fill="#d1d3d4"/><path d="M59.133,185.925a1.082,1.082,0,0,1-1.073-.945,11.5,11.5,0,0,1,2.87-8.235,22.567,22.567,0,0,1,6.86-5.243,24.837,24.837,0,0,1,7.817-2.9,13.5,13.5,0,0,1,8.493,1.17,1,1,0,0,1,.526.609.959.959,0,0,1-.106.786,1.041,1.041,0,0,1-.629.511,1.085,1.085,0,0,1-.818-.083,11.28,11.28,0,0,0-7-.945,22.512,22.512,0,0,0-7,2.655,20.683,20.683,0,0,0-6.463,4.748,9.346,9.346,0,0,0-2.333,6.75,1.011,1.011,0,0,1-.247.759,1.087,1.087,0,0,1-.733.366Z" transform="translate(23.342 172.696)" fill="#d1d3d4"/><path d="M126.395,213.832h-.233a1.074,1.074,0,0,1-.675-.455,1,1,0,0,1-.142-.782l2.5-11a1.1,1.1,0,0,1,1.283-.81,1.057,1.057,0,0,1,.817,1.238l-2.5,11.025A1.09,1.09,0,0,1,126.395,213.832Z" transform="translate(113.043 213.191)" fill="#d1d3d4"/><path d="M124.407,212.876a1.062,1.062,0,0,1-1.05-.878l-1.4-8.505a1.042,1.042,0,0,1,.9-1.181,1.07,1.07,0,0,1,1.225.866l1.4,8.483a1.006,1.006,0,0,1-.186.774,1.079,1.079,0,0,1-.7.419Z" transform="translate(108.544 215.114)" fill="#d1d3d4"/><path d="M60.724,223.117A1.558,1.558,0,0,1,59.3,222.1l-3.243-6.728A1.019,1.019,0,0,1,56.571,214a1.115,1.115,0,0,1,1.447.5l2.94,6.1.35.113a1.242,1.242,0,0,1,.583,1.328,1.379,1.379,0,0,1-1.05.967Z" transform="translate(20.562 229.623)" fill="#d1d3d4"/><path d="M61.534,221.95a1.1,1.1,0,0,1-.98-.607,9.988,9.988,0,0,1-.373-7.515,1.056,1.056,0,0,1,.8-.76,1.1,1.1,0,0,1,1.065.342,1.006,1.006,0,0,1,.166,1.071,8.115,8.115,0,0,0,.3,6.008,1,1,0,0,1,.027.794,1.051,1.051,0,0,1-.564.579A1.036,1.036,0,0,1,61.534,221.95Z" transform="translate(25.446 228.541)" fill="#d1d3d4"/><path d="M64.539,223.306a1.087,1.087,0,0,1-1.05-.833,21.713,21.713,0,0,1,0-8.663,1.073,1.073,0,0,1,1.26-.81,1.037,1.037,0,0,1,.84,1.215,19.78,19.78,0,0,0,0,7.853,1,1,0,0,1-.168.781,1.077,1.077,0,0,1-.695.434Z" transform="translate(30.023 228.467)" fill="#d1d3d4"/><path d="M89.752,206.314a1.069,1.069,0,0,1-1.027-.743,21.344,21.344,0,0,0-2.963-5.783,1.012,1.012,0,0,1,.292-1.391,1.1,1.1,0,0,1,1.458.2,22.338,22.338,0,0,1,3.243,6.368,1,1,0,0,1-.068.793,1.064,1.064,0,0,1-.632.512Z" transform="translate(60.086 209.999)" fill="#d1d3d4"/><path d="M90.486,205.388a1.088,1.088,0,0,1-1.05-.833,11.516,11.516,0,0,1,.3-5.963,1.022,1.022,0,0,1,.518-.608,1.085,1.085,0,0,1,.813-.067,1.03,1.03,0,0,1,.723,1.283,9.626,9.626,0,0,0-.257,4.95.96.96,0,0,1-.134.779,1.029,1.029,0,0,1-.682.436Z" transform="translate(64.859 209.575)" fill="#d1d3d4"/><path d="M94.052,206.973h-.21a1.037,1.037,0,0,1-.84-1.215,34.934,34.934,0,0,1,3.1-8.82,1.013,1.013,0,0,1,.6-.536,1.061,1.061,0,0,1,.819.063,1.026,1.026,0,0,1,.546.587.98.98,0,0,1-.056.786,34.4,34.4,0,0,0-2.917,8.325,1.042,1.042,0,0,1-1.05.81Z" transform="translate(69.927 207.674)" fill="#d1d3d4"/><path d="M45.166,202.462a1.082,1.082,0,0,1-.91-.5l-3.57-5.738a1.015,1.015,0,0,1,.373-1.418,1.12,1.12,0,0,1,1.493.36l3.547,5.738a1.015,1.015,0,0,1-.373,1.418A1.274,1.274,0,0,1,45.166,202.462Z" transform="translate(0 205.57)" fill="#d1d3d4"/><path d="M45.64,202.12a1.068,1.068,0,0,1-1.05-.765,26.755,26.755,0,0,1-1.05-7.2,1.078,1.078,0,0,1,1.073-1.035h0a1.079,1.079,0,0,1,1.1,1.035,23.666,23.666,0,0,0,.957,6.637,1,1,0,0,1-.1.791,1.068,1.068,0,0,1-.651.491Z" transform="translate(4.006 203.639)" fill="#d1d3d4"/><path d="M47.937,202.124a1.117,1.117,0,0,1-1.027-.72,8.928,8.928,0,0,1,.56-7.2,1.093,1.093,0,0,1,1.447-.428,1.025,1.025,0,0,1,.543.6.98.98,0,0,1-.076.794,6.99,6.99,0,0,0-.443,5.558.98.98,0,0,1-.031.8,1.039,1.039,0,0,1-.623.528A.963.963,0,0,1,47.937,202.124Z" transform="translate(7.823 204.31)" fill="#d1d3d4"/><path d="M338.676,230.565a1.435,1.435,0,0,1-.793-.248,1.917,1.917,0,0,1-.63-1.8,8.071,8.071,0,0,0-1.353-5.4,1.056,1.056,0,0,1,.327-1.44,1.106,1.106,0,0,1,.81-.154,1.075,1.075,0,0,1,.683.446,10.2,10.2,0,0,1,1.727,6.21h0a1.273,1.273,0,0,1,.63,1.08,1.4,1.4,0,0,1-.817,1.147,1.583,1.583,0,0,1-.583.158Z" transform="translate(393.606 239.119)" fill="#d1d3d4"/><path d="M340.066,230.667a1.056,1.056,0,0,1-1.073-1.013,18.189,18.189,0,0,1,1.68-8.055,1.058,1.058,0,0,1,.6-.544,1.11,1.11,0,0,1,.823.026,1.03,1.03,0,0,1,.573.575.979.979,0,0,1-.037.8,16.446,16.446,0,0,0-1.493,7.155,1.053,1.053,0,0,1-1.05,1.057Z" transform="translate(397.933 238.477)" fill="#d1d3d4"/><path d="M343.41,230.794a1.087,1.087,0,0,1-1.073-.855,8.163,8.163,0,0,1,2.007-6.975,1.077,1.077,0,0,1,1.517,0,1.009,1.009,0,0,1,0,1.463,6.317,6.317,0,0,0-1.493,5.265.984.984,0,0,1-.17.773,1.055,1.055,0,0,1-.693.42Z" transform="translate(402.218 240.555)" fill="#d1d3d4"/><path d="M255,207.977a1.058,1.058,0,0,1-1.073-.968,24.219,24.219,0,0,0-1.587-7,1.046,1.046,0,0,1,.63-1.35,1.132,1.132,0,0,1,1.4.63,26.352,26.352,0,0,1,1.7,7.583,1.072,1.072,0,0,1-1,1.1Z" transform="translate(282.311 210.496)" fill="#d1d3d4"/><path d="M256.213,208.641h0a1.093,1.093,0,0,1-.767-.311,1.016,1.016,0,0,1-.306-.746,22.261,22.261,0,0,1,1.7-8.348,1.092,1.092,0,0,1,1.4-.585,1.029,1.029,0,0,1,.607,1.35,20.365,20.365,0,0,0-1.563,7.605,1.055,1.055,0,0,1-1.073,1.035Z" transform="translate(286.137 210.462)" fill="#d1d3d4"/><path d="M259.243,207.4a1.1,1.1,0,0,1-.98-.608,1,1,0,0,1-.018-.8,1.053,1.053,0,0,1,.578-.573c.723-.315,1.027-1.193,1.423-2.61a5.469,5.469,0,0,1,2.52-3.915,1.109,1.109,0,0,1,.82-.065,1.064,1.064,0,0,1,.627.514,1.039,1.039,0,0,1-.467,1.4c-.77.383-1.1,1.463-1.423,2.633a5.278,5.278,0,0,1-2.637,3.938.986.986,0,0,1-.443.09Z" transform="translate(290.177 210.714)" fill="#d1d3d4"/><path d="M336.375,208.633a1.058,1.058,0,0,1-.933-.518l-4.06-6.75a1.036,1.036,0,0,1,.373-1.418,1.108,1.108,0,0,1,.817-.1,1.069,1.069,0,0,1,.653.486l4.06,6.75a1.015,1.015,0,0,1-.373,1.418,1.273,1.273,0,0,1-.537.135Z" transform="translate(387.601 212)" fill="#d1d3d4"/><path d="M336.514,208.461a1.086,1.086,0,0,1-1.05-.855,16.531,16.531,0,0,1,.373-7.7,3.188,3.188,0,0,1,2.333-2.25,1.7,1.7,0,0,1,1.68.743,1.007,1.007,0,0,1-.157,1.286,1.1,1.1,0,0,1-1.336.131,1.5,1.5,0,0,0-.373.608,14.165,14.165,0,0,0-.327,6.75,1.039,1.039,0,0,1-.863,1.193Z" transform="translate(392.851 209.292)" fill="#d1d3d4"/><path d="M339.1,207.677a1.082,1.082,0,0,1-1.073-.945,8.049,8.049,0,0,1,5.39-8.078,1.109,1.109,0,0,1,.824.038,1.028,1.028,0,0,1-.1,1.919,5.981,5.981,0,0,0-3.967,5.918,1.01,1.01,0,0,1-.247.759,1.086,1.086,0,0,1-.733.366Z" transform="translate(396.632 210.481)" fill="#d1d3d4"/><path d="M232.263,202.943a1.055,1.055,0,0,1-.957-.562,22.061,22.061,0,0,0-3.617-5.108,1.01,1.01,0,0,1,.07-1.463,1.1,1.1,0,0,1,1.517.068,23.743,23.743,0,0,1,3.943,5.58,1.018,1.018,0,0,1-.49,1.373.84.84,0,0,1-.467.113Z" transform="translate(249.163 206.664)" fill="#d1d3d4"/><path d="M232.231,203.066a1.115,1.115,0,0,1-1.05-.765,11.582,11.582,0,0,1,.14-6.548,1.049,1.049,0,0,1,.774-.832,1.1,1.1,0,0,1,1.107.331,1.006,1.006,0,0,1,.149,1.109,9.669,9.669,0,0,0,0,5.4,1.031,1.031,0,0,1-.747,1.26Z" transform="translate(253.652 205.844)" fill="#d1d3d4"/><path d="M234.922,203.971a1.078,1.078,0,0,1-.957-.563,7.949,7.949,0,0,1,.49-6.615,3.529,3.529,0,0,1,1.167-1.665,2.142,2.142,0,0,1,1.773-.248,1.7,1.7,0,0,1,1.1.99,1.025,1.025,0,0,1-.63,1.328,1.053,1.053,0,0,1-1.143-.247,2.471,2.471,0,0,1-.257.585,6.3,6.3,0,0,0-.56,4.928,1.025,1.025,0,0,1-.063,1.012,1.106,1.106,0,0,1-.917.5Z" transform="translate(257.238 205.726)" fill="#d1d3d4"/><path d="M141.156,237.517h0a1.066,1.066,0,0,1-.738-.336.99.99,0,0,1-.266-.744,15.754,15.754,0,0,0-.863-5.963,1,1,0,0,1,.068-.793,1.064,1.064,0,0,1,.632-.512,1.083,1.083,0,0,1,1.353.653,17.731,17.731,0,0,1,.957,6.75,1.085,1.085,0,0,1-1.143.945Z" transform="translate(131.602 248.637)" fill="#d1d3d4"/><path d="M142.437,236.827a1.058,1.058,0,0,1-1.073-.968,34.851,34.851,0,0,1,.14-6.975,1.089,1.089,0,0,1,1.9-.526.987.987,0,0,1,.223.751,36.9,36.9,0,0,0-.117,6.615,1.071,1.071,0,0,1-1,1.1Z" transform="translate(134.287 247.212)" fill="#d1d3d4"/><path d="M144.731,237.121h-.3a1.03,1.03,0,0,1-.723-1.283,39.923,39.923,0,0,1,2.87-6.885,1.094,1.094,0,0,1,1.447-.45,1.019,1.019,0,0,1,.467,1.4,36.493,36.493,0,0,0-2.707,6.525A1.1,1.1,0,0,1,144.731,237.121Z" transform="translate(137.5 247.728)" fill="#d1d3d4"/><path d="M60.584,194.821a1.06,1.06,0,0,1-1.073-.923,19.053,19.053,0,0,1,10.337-18.886A20.525,20.525,0,0,1,91.9,177a1.031,1.031,0,0,1,.14,1.463,1.061,1.061,0,0,1-.728.382,1.075,1.075,0,0,1-.788-.247,18.314,18.314,0,0,0-19.638-1.769,17,17,0,0,0-9.248,16.8,1.009,1.009,0,0,1-.23.766,1.085,1.085,0,0,1-.727.381Z" transform="translate(25.158 178.11)" fill="#d1d3d4"/></g></svg>