<svg xmlns="http://www.w3.org/2000/svg" width="524.699" height="524.701" viewBox="0 0 524.699 524.701"><g transform="translate(-87.16 -37.14)"><path d="M609.987,298.824c0,144.237-116.927,261.164-261.164,261.164S87.66,443.061,87.66,298.824,204.587,37.661,348.824,37.661A260.49,260.49,0,0,1,609.987,298.824Z" transform="translate(0.662 0.688)" fill="#f5f5f5"/><path d="M349.486,561.839c-144.879,0-262.326-117.447-262.326-262.326,0-144.921,117.467-262.381,262.365-262.373,90.262,0,169.88,45.592,217.155,115.115A262.316,262.316,0,0,1,349.494,561.839Zm0-522.327c-143.595,0-260,116.407-260,260s116.407,260,260,260,260-116.407,260-260a260.347,260.347,0,0,0-260-260Z" transform="translate(0 0)" fill="#231f20"/><path d="M219.809,301.853a1.186,1.186,0,0,1-.721-.256,1.162,1.162,0,0,1-.186-1.627,32.142,32.142,0,0,0,1.465-3.836c3.743-10.6,13.577-38.475,35.569-34.337,1.418-5.277,8.369-27.455,26.828-35.546,11.88-5.231,26.037-3.417,42.078,5.393,1.162-7.207,7.114-35.313,30.408-52.33,18.133-13.228,42.334-16.831,72.068-10.671a1.162,1.162,0,0,1,.907,1.372,1.209,1.209,0,0,1-1.395.907c-28.943-6.021-52.54-2.557-70.115,10.275-25.921,18.924-29.687,52.075-29.71,52.4a1.209,1.209,0,0,1-.628.93,1.186,1.186,0,0,1-1.116,0c-15.971-9.113-29.92-11.182-41.474-6.114-19.5,8.555-25.712,34.871-25.758,35.057a1.162,1.162,0,0,1-.511.721,1.209,1.209,0,0,1-.883.163C235.85,259.5,226.6,285.742,222.668,296.9a19.459,19.459,0,0,1-1.86,4.51A1.186,1.186,0,0,1,219.809,301.853Z" transform="translate(174.196 170.343)" fill="#d1d3d4"/><path d="M281.421,329.1H177.69L204.867,170.71h49.378Z" transform="translate(119.931 176.948)" fill="#f5f5f5"/><path d="M282.081,330.921H178.35a1.139,1.139,0,0,1-1.139-1.348l27.177-158.386a1.162,1.162,0,0,1,1.139-.976H254.9a1.162,1.162,0,0,1,1.139.976L283.22,329.572a1.139,1.139,0,0,1-1.139,1.348ZM179.792,328.6H280.733L253.951,172.535H206.526Z" transform="translate(119.27 176.286)" fill="#231f20"/><path d="M245.432,196.2H191.87l-6.44-25.735h66.442Z" transform="translate(130.184 176.617)" fill="#fff"/><path d="M246.025,197.95h-53.47a1.186,1.186,0,0,1-1.139-.883L185.023,171.4a1.069,1.069,0,0,1,.209-.976,1.093,1.093,0,0,1,.907-.465h66.3a1.093,1.093,0,0,1,.907.465,1.139,1.139,0,0,1,.233.976l-6.44,25.758a1.185,1.185,0,0,1-1.116.79Zm-52.656-2.325h51.749l5.858-23.248H187.51Z" transform="translate(129.592 175.955)" fill="#231f20"/><path d="M196.869,135.9s-28.083,17.552-37.847,46.821S171.506,268.5,171.506,268.5l51.145-55.376Z" transform="translate(91.918 130.833)" fill="#fff"/><path d="M172.191,270.275h-.209a1.116,1.116,0,0,1-.86-.7c-.93-2.325-22.271-57.282-12.507-86.6s38.033-47.239,38.312-47.425a1.209,1.209,0,0,1,1.023,0,1.232,1.232,0,0,1,.7.744l25.689,77.159a1.162,1.162,0,0,1-.232,1.162L172.958,270a1.139,1.139,0,0,1-.767.279Zm24.735-131.953c-5.51,3.789-27.9,20.342-36.1,45.356-8.555,25.572,8.183,73.532,11.787,83.273l49.355-53.47Z" transform="translate(91.279 130.226)" fill="#231f20"/><path d="M240.8,135.9s28.083,17.552,37.847,46.821S266.165,268.5,266.165,268.5L215.02,213.129Z" transform="translate(169.384 130.833)" fill="#fff"/><path d="M266.8,270.354a1.139,1.139,0,0,1-.86-.372L214.8,214.606a1.162,1.162,0,0,1-.233-1.162L240.3,136.239a1.232,1.232,0,0,1,.7-.744,1.209,1.209,0,0,1,1.023,0c.279.186,28.548,18.11,38.312,47.425s-11.624,84.273-12.507,86.6a1.116,1.116,0,0,1-.86.7Zm-49.727-56.817,49.355,53.47c3.6-9.741,20.342-57.608,11.787-83.273-8.323-25.014-30.594-41.567-36.1-45.356Z" transform="translate(168.697 130.146)" fill="#231f20"/><path d="M284.731,331.556c13.949-33.407,22.759-81.832,22.759-135.72,0-81.669-45.054-124.189-62.164-137.393a10.6,10.6,0,0,0-12.972,0c-17.11,13.2-62.164,55.794-62.164,137.393,0,53.888,8.788,102.29,22.759,135.72,0,0,13.949,6.974,45.891,6.974S284.731,331.556,284.731,331.556Z" transform="translate(109.995 25.286)" fill="#50d890"/><path d="M224.141,58.443a159.176,159.176,0,0,0-47.751,63.28H284.863a159.176,159.176,0,0,0-47.751-63.28A10.6,10.6,0,0,0,224.141,58.443Z" transform="translate(118.208 25.286)" fill="#fff"/><path d="M285.522,123.541H177.049a1.162,1.162,0,0,1-1.069-1.6,159.433,159.433,0,0,1,48.1-63.745h0a11.787,11.787,0,0,1,14.413,0,159.432,159.432,0,0,1,48.1,63.745,1.162,1.162,0,0,1-1.069,1.6Zm-106.707-2.325h104.94a157.083,157.083,0,0,0-46.681-61.188,9.462,9.462,0,0,0-11.624,0,156.874,156.874,0,0,0-46.635,61.188Z" transform="translate(117.549 24.63)" fill="#231f20"/><circle cx="41.869" cy="41.869" r="41.869" transform="translate(309.663 165.839)" fill="#fff"/><path d="M225.415,178.043a43.031,43.031,0,1,1,43.008-43.024A43.031,43.031,0,0,1,225.415,178.043Zm0-83.691A40.707,40.707,0,1,0,266.1,135.042a40.707,40.707,0,0,0-40.683-40.691Z" transform="translate(126.117 72.65)" fill="#231f20"/><circle cx="25.828" cy="25.828" r="25.828" transform="translate(325.704 181.88)" fill="#231f20"/><path d="M216.26,152.881a26.99,26.99,0,1,1,26.99-26.991,26.991,26.991,0,0,1-26.99,26.991Zm0-51.656a24.666,24.666,0,1,0,24.666,24.666,24.666,24.666,0,0,0-24.666-24.666Z" transform="translate(135.271 81.817)" fill="#231f20"/><path d="M222.026,121.7a1.139,1.139,0,0,1-1.139-.976c-2.65-18.087-18.6-17.3-19.272-17.25a1.186,1.186,0,0,1-1.232-1.069,1.139,1.139,0,0,1,1.069-1.232c.186,0,18.761-1.023,21.713,19.226a1.162,1.162,0,0,1-.976,1.3Z" transform="translate(149.987 84.82)" fill="#fff"/><path d="M197.654,105.532a1.186,1.186,0,0,1-.907-.442,1.162,1.162,0,0,1,.209-1.627,11,11,0,0,1,4.789-2,1.186,1.186,0,0,1,1.3,1.023,1.139,1.139,0,0,1-1,1.279,8.462,8.462,0,0,0-3.673,1.534,1.209,1.209,0,0,1-.721.232Z" transform="translate(144.858 85.205)" fill="#fff"/><path d="M217.937,211.134h-.372a1.162,1.162,0,0,1-.721-1.465,603.447,603.447,0,0,0,17.506-70.045,1.181,1.181,0,1,1,2.325.418,595.138,595.138,0,0,1-17.6,70.347,1.139,1.139,0,0,1-1.139.744Z" transform="translate(171.721 134.479)" fill="#fff"/><path d="M204.546,216.064a1.162,1.162,0,0,1-1.139-1.069l-2.325-29.71a1.154,1.154,0,1,1,2.3-.163l2.325,29.687a1.162,1.162,0,0,1-1.069,1.255Z" transform="translate(150.915 194.618)" fill="#231f20"/><path d="M192.938,224.448h-.163a1.162,1.162,0,0,1-1-1.3l4.045-31.315a1.172,1.172,0,0,1,2.325.3L194.1,223.449A1.162,1.162,0,0,1,192.938,224.448Z" transform="translate(138.578 203.577)" fill="#231f20"/><path d="M211.848,224.045a1.139,1.139,0,0,1-1.139-.976L206.478,197.5a1.168,1.168,0,1,1,2.3-.4l4.231,25.572a1.162,1.162,0,0,1-.953,1.325Z" transform="translate(158.049 210.629)" fill="#231f20"/><path d="M150.092,122.611a1.186,1.186,0,0,1-1.162-1.162v-7.416a1.162,1.162,0,1,1,2.325,0v7.416A1.162,1.162,0,0,1,150.092,122.611Z" transform="translate(81.83 100.324)" fill="#d1d3d4"/><path d="M150.092,129.311a1.162,1.162,0,0,1-1.162-1.162v-7.486a1.162,1.162,0,1,1,2.325,0v7.416a1.162,1.162,0,0,1-1.162,1.232Z" transform="translate(81.83 109.107)" fill="#d1d3d4"/><path d="M159.248,120.115h-7.416a1.162,1.162,0,0,1,0-2.325h7.416a1.162,1.162,0,0,1,0,2.325Z" transform="translate(84.136 106.842)" fill="#d1d3d4"/><path d="M152.6,120.115h-7.439A1.162,1.162,0,0,1,144,118.952a1.186,1.186,0,0,1,1.162-1.162H152.6a1.186,1.186,0,0,1,1.162,1.162A1.162,1.162,0,0,1,152.6,120.115Z" transform="translate(75.299 106.842)" fill="#d1d3d4"/><path d="M119.282,135.791a1.162,1.162,0,0,1-1.162-1.162v-7.416a1.162,1.162,0,0,1,2.325,0v7.416A1.162,1.162,0,0,1,119.282,135.791Z" transform="translate(41.015 117.785)" fill="#d1d3d4"/><path d="M119.282,142.461a1.162,1.162,0,0,1-1.162-1.162v-7.416a1.162,1.162,0,1,1,2.325,0V141.3A1.162,1.162,0,0,1,119.282,142.461Z" transform="translate(41.015 126.621)" fill="#d1d3d4"/><path d="M128.438,133.325h-7.416a1.162,1.162,0,1,1,0-2.325h7.416a1.162,1.162,0,0,1,0,2.325Z" transform="translate(43.32 124.342)" fill="#d1d3d4"/><path d="M121.768,133.325h-7.416a1.162,1.162,0,1,1,0-2.325h7.416a1.162,1.162,0,0,1,0,2.325Z" transform="translate(34.484 124.342)" fill="#d1d3d4"/><path d="M248.792,113.8a1.162,1.162,0,0,1-1.162-1.162v-7.416a1.162,1.162,0,1,1,2.325,0v7.416A1.162,1.162,0,0,1,248.792,113.8Z" transform="translate(212.584 88.653)" fill="#d1d3d4"/><path d="M248.792,120.461a1.162,1.162,0,0,1-1.162-1.162v-7.416a1.186,1.186,0,0,1,1.162-1.162,1.162,1.162,0,0,1,1.162,1.162V119.3A1.162,1.162,0,0,1,248.792,120.461Z" transform="translate(212.584 97.476)" fill="#d1d3d4"/><path d="M257.948,111.325h-7.416a1.162,1.162,0,1,1,0-2.325h7.416a1.162,1.162,0,0,1,0,2.325Z" transform="translate(214.89 95.197)" fill="#d1d3d4"/><path d="M251.288,111.325h-7.416a1.162,1.162,0,1,1,0-2.325h7.416a1.162,1.162,0,0,1,1.162,1.162A1.186,1.186,0,0,1,251.288,111.325Z" transform="translate(206.067 95.197)" fill="#d1d3d4"/><path d="M284.862,132.461A1.162,1.162,0,0,1,283.7,131.3v-7.416a1.162,1.162,0,1,1,2.325,0V131.3A1.162,1.162,0,0,1,284.862,132.461Z" transform="translate(260.369 113.373)" fill="#d1d3d4"/><path d="M284.862,139.121a1.162,1.162,0,0,1-1.162-1.162v-7.416a1.162,1.162,0,0,1,1.162-1.162,1.186,1.186,0,0,1,1.162,1.162v7.416A1.162,1.162,0,0,1,284.862,139.121Z" transform="translate(260.369 122.196)" fill="#d1d3d4"/><path d="M294.008,129.975h-7.416a1.186,1.186,0,0,1-1.162-1.162,1.162,1.162,0,0,1,1.162-1.162h7.416a1.162,1.162,0,0,1,0,2.325Z" transform="translate(262.66 119.904)" fill="#d1d3d4"/><path d="M287.348,129.975h-7.416a1.162,1.162,0,0,1,0-2.325h7.416a1.162,1.162,0,0,1,0,2.325Z" transform="translate(253.837 119.904)" fill="#d1d3d4"/><path d="M261.982,83.631a1.162,1.162,0,0,1-1.162-1.162V75.052a1.162,1.162,0,1,1,2.325,0v7.416A1.162,1.162,0,0,1,261.982,83.631Z" transform="translate(230.058 48.685)" fill="#d1d3d4"/><path d="M261.982,90.3a1.162,1.162,0,0,1-1.162-1.162V81.722a1.162,1.162,0,1,1,2.325,0v7.416A1.162,1.162,0,0,1,261.982,90.3Z" transform="translate(230.058 57.521)" fill="#d1d3d4"/><path d="M271.138,81.145h-7.416a1.162,1.162,0,0,1,0-2.325h7.416a1.162,1.162,0,1,1,0,2.325Z" transform="translate(232.363 55.216)" fill="#d1d3d4"/><path d="M264.468,81.145h-7.416a1.162,1.162,0,0,1,0-2.325h7.416a1.162,1.162,0,0,1,0,2.325Z" transform="translate(223.527 55.216)" fill="#d1d3d4"/><path d="M288.541,337.977h-.186a1.162,1.162,0,0,1-1.023-1.279c0-.488,5.393-47.262-15.994-66.907-8.695-8-20.76-10.485-35.871-7.393a1.069,1.069,0,0,1-.953-.232,1.093,1.093,0,0,1-.442-.86c0-.442-1.488-44.17-29.083-62.606-16.134-10.787-38.033-11.066-65.093-.767a1.186,1.186,0,0,1-1.162-.209,1.232,1.232,0,0,1-.4-1.139c0-.186,4.138-19.249-6.37-29.385-7.3-6.974-19.946-8.253-37.568-3.627a1.139,1.139,0,0,1-1.418-.837,1.162,1.162,0,0,1,.814-1.418c18.459-4.835,31.849-3.417,39.8,4.231,9.3,9.067,8.206,24.038,7.393,29.5,26.921-9.857,48.82-9.3,65.3,1.744,14.971,10.043,22.364,27.037,25.921,39.521a115.771,115.771,0,0,1,4.115,23.527c15.274-2.836,27.572,0,36.592,8.23,22.248,20.458,16.971,66.907,16.738,68.859A1.162,1.162,0,0,1,288.541,337.977Z" transform="translate(7.661 160.791)" fill="#d1d3d4"/><path d="M484.049,266.334c-104.955,95.963-267.4,90.31-365.429-12.716a40.271,40.271,0,0,1,5.231-2.325c46.007-18.6,71.021,19.737,71.021,19.737s12-63.35,85.04-63.35,90.038,49.843,90.038,49.843,14.995-30.222,48.006-28.037,38.01,43.427,38.01,43.427a74.7,74.7,0,0,1,28.083-6.579Z" transform="translate(41.677 225.925)" fill="#f5f5f5"/><path d="M308.468,336.563A260,260,0,0,1,118.442,255.2a1.162,1.162,0,0,1-.3-1,1.092,1.092,0,0,1,.6-.837,57.087,57.087,0,0,1,5.324-2.464c24.224-9.834,42.636-3.836,53.818,2.929A64.535,64.535,0,0,1,195,269.005c3.231-11.856,20.76-61.815,85.574-61.815,64.047,0,85.737,38.568,90.2,48.378C375,248.594,390.509,227.206,418.685,229c29.873,1.883,37.5,35.22,38.847,42.892a77.719,77.719,0,0,1,27.13-5.951,1.209,1.209,0,0,1,1.116.721,1.186,1.186,0,0,1-.279,1.3A261.861,261.861,0,0,1,308.468,336.563Zm-187.26-81.971c96.9,100.667,256.04,106.745,360.338,13.763a72.881,72.881,0,0,0-24.294,6.161,1.162,1.162,0,0,1-1.069,0,1.209,1.209,0,0,1-.6-.883,69.744,69.744,0,0,0-6.532-20.6c-6.974-13.646-17.157-20.923-30.385-21.806-31.872-2-46.751,27.107-46.89,27.386a1.209,1.209,0,0,1-1.116.651,1.139,1.139,0,0,1-1.023-.79c-.186-.488-17.668-49.052-88.945-49.052s-83.808,61.746-84.017,62.42a1.162,1.162,0,0,1-2.116.418,61.188,61.188,0,0,0-17.97-16.552c-15.576-9.3-32.942-10.322-51.633-2.743C123.719,253.43,122.487,253.987,121.208,254.592Z" transform="translate(41.018 225.276)" fill="#231f20"/><path d="M268.956,251.972a1.116,1.116,0,0,1-.86-.4c-14.971-16.529-27.9-20.667-36.243-21.225a26.828,26.828,0,0,0-14.483,2.743,1.162,1.162,0,0,1-1.209-1.976c.233-.14,23.736-14.158,53.656,18.9a1.186,1.186,0,0,1-.86,1.953Z" transform="translate(170.266 252.91)" fill="#d1d3d4"/><path d="M262.026,244.7a1.162,1.162,0,0,1-1.162-1.069c0-.93-1.534-22.6,13.949-37.661,11.391-11.112,28.874-15.553,51.935-13.158a1.168,1.168,0,0,1-.232,2.325c-22.341-2.325-39.2,1.906-50.075,12.507-14.693,14.321-13.251,35.615-13.228,35.825a1.162,1.162,0,0,1-1.069,1.255Z" transform="translate(230.061 205.39)" fill="#d1d3d4"/><path d="M162.782,129.683A32.082,32.082,0,1,1,194.863,97.6a32.082,32.082,0,0,1-32.082,32.082Zm0-61.839A29.757,29.757,0,1,0,192.539,97.6a29.757,29.757,0,0,0-29.757-29.757Z" transform="translate(57.68 37.597)" fill="#d1d3d4"/><path d="M169.016,221.466a1.162,1.162,0,0,1-1.046-.651c-27.9-58.119-68.743-39.916-69.138-39.73a1.17,1.17,0,0,1-1-2.116c.418-.186,43.264-19.435,72.23,40.823a1.162,1.162,0,0,1-.535,1.558,1.023,1.023,0,0,1-.511.116Z" transform="translate(13.25 183.824)" fill="#d1d3d4"/></g></svg>